# xmcd CD database file
#
# Track frame offsets:
#	150
#	16387
#	32612
#
# Disc length: 481 seconds
#
# Revision: 0
# Processed by: cddbd v1.5.1PL0 Copyright (c) Steve Scherf et al.
# Submitted via: CDex 1.51
#
DISCID=1801df03
DTITLE=桜玉吉&餅月あんこ - Wood Ballの唄
DYEAR=1900
DGENRE=Vocal
TTITLE0=Wood Ballの唄
TTITLE1=Wood Ballの唄(INST)
TTITLE2=Wood Ballの唄(「マリオペイント」ヴァージョン)
EXTD=
EXTT0=
EXTT1=
EXTT2=
PLAYORDER=
